<?xml version="1.0" encoding="UTF-8"?>
<svg version="1.1" viewBox="0 0 1008 1012" width="252" height="253" xmlns="http://www.w3.org/2000/svg">
<path transform="translate(93)" d="m0 0h3v4h708l17 6 16 8 10 6 10 7 13 12 6 8 8 13 8 15 6 16 1 1 1 7 1 796 2 3 3 1 88 1 6 5v2l4 2v2l4 2v22l-3 5-3 9-6 10-3 4-3 5-11 11-6 3-9 6-14 7-10 3-5 2-10 2-2 1-15 1h-16v4h-632l-2-3-11-3-17-9-7-4-21-21-7-11-3-4-8-17-4-11v-817h-166l-6-5-4-6-2-5-2-1v-10l2-2 7-22 8-16 9-10h2l2-4 4-7 5-2 7-7 7-4 6-3 9-1 1-3 22-1z" fill="#FD91D3"/>
<path transform="translate(899,140)" d="m0 0h1l1 759 2 3 3 1 88 1 6 5v2l4 2v2l4 2v22l-3 5-3 9-6 10-3 4-3 5-11 11-6 3-9 6-14 7-10 3-5 2-10 2-2 1-15 1h-16v4h-566l4-3 21-9 12-6 11-8 8-6 15-15 7-11 8-16 3-7 3-11 4-8 9-6 15-4 5-1 31-1h409l8 1-1-93v-639z" fill="#FD64A3"/>
<path transform="translate(340,464)" d="m0 0h438l9 2 4 4 4 10v10l-3 5-8 6-4 2-14 1-72 1-382-1-10-2v-2l-5-1-6-5-3-5v-7l3-10 4-6 1-1z" fill="#FE64A3"/>
<path transform="translate(341,572)" d="m0 0h440l8 6 1 4 3 1 3 9-2 8-5 6-10 5-18 1h-449l-10-2-11-8-3-5v-9l4-9 6-5 5-1z" fill="#FE64A3"/>
<path transform="translate(362,356)" d="m0 0h419l9 7 4 7 1 2v10l-4 6-6 6-12 2-74 1h-109l-286-1-9-2-5-5-2-5v-20h2l2-4 6-2 10-1z" fill="#FE64A3"/>
<path transform="translate(93)" d="m0 0h3v4h132v1l-75 1h-32l-2 1 14 7 11 9 13 13 9 15 8 19 5 22 2 19 1 10 1 43v763l4 14-1 3-3-8-3-7v-817h-166l-6-5-4-6-2-5-2-1v-10l2-2 7-22 8-16 9-10h2l2-4 4-7 5-2 7-7 7-4 6-3 9-1 1-3 22-1z" fill="#FD64A3"/>
<path transform="translate(339,680)" d="m0 0h257l10 2 6 12 1 6-3 12-4 4-8 2-5 1-26 1h-251l-10-2-10-4-4-4-4-10 1-7 8-9h2v-2l3-1z" fill="#FE64A3"/>
<path transform="translate(892,82)" d="m0 0 2 1 4 12 1 1 1 7v20h-1l-2-21-5-18z" fill="#FE64A3"/>
<path transform="translate(849,27)" d="m0 0 6 2 15 14-1 2-8-8-12-9z" fill="#FE64A3"/>
<path transform="translate(258,1008)" d="m0 0 9 2 12 1v1h-19z" fill="#FE64A3"/>
</svg>
