<?xml version="1.0" encoding="UTF-8"?>
<svg version="1.1" viewBox="0 0 1008 1012" width="252" height="253" xmlns="http://www.w3.org/2000/svg">
<path transform="translate(93)" d="m0 0h3v4h708l17 6 16 8 10 6 10 7 13 12 6 8 8 13 8 15 6 16 1 1 1 7 1 796 2 3 3 1 88 1 6 5v2l4 2v2l4 2v22l-3 5-3 9-6 10-3 4-3 5-11 11-6 3-9 6-14 7-10 3-5 2-10 2-2 1-15 1h-16v4h-632l-2-3-11-3-17-9-7-4-21-21-7-11-3-4-8-17-4-11v-817h-166l-6-5-4-6-2-5-2-1v-10l2-2 7-22 8-16 9-10h2l2-4 4-7 5-2 7-7 7-4 6-3 9-1 1-3 22-1z" fill="#422D3B"/>
<path transform="translate(486,899)" d="m0 0h358l40 1 18 1 4 2 88 1 6 5v2l4 2v2l4 2v22l-3 5-3 9-6 10-3 4-3 5-11 11-6 3-9 6-14 7-10 3-5 2-10 2-2 1-15 1h-16v4h-566l4-3 31-15 15-10 10-9 11-11 11-18 6-15 5-15 7-8 9-4 12-3 6-1z" fill="#24121F"/>
<path transform="translate(370,355)" d="m0 0h341l65 1 9 1 6 5 4 9v9l-4 10-5 4-10 2h-462l-18-1-5-3-2-3-1-6v-14l2-8 4-3 18-2z" fill="#24121F"/>
<path transform="translate(364,463)" d="m0 0h343l71 1 10 2 4 4 3 7v12l-3 6-8 7-6 2-86 1h-316l-57-1-18-2-9-6-3-4-1-4v-7l3-9 4-7 2-1z" fill="#24121F"/>
<path transform="translate(348,571)" d="m0 0h369l63 1 7 2 6 7 2 5v11l-4 8-8 5-3 1-27 1-376 1-63-1-13-2-10-7-3-6v-11l6-10 5-3 5-1z" fill="#24121F"/>
<path transform="translate(93)" d="m0 0h3v4h20l6 5 14 7 10 8 11 11 7 11 9 19 4 14 3 15v17h-168l-7-8-3-7-2-1v-10l2-2 7-22 8-16 9-10h2l2-4 4-7 5-2 7-7 7-4 6-3 9-1 1-3 22-1z" fill="#24121F"/>
<path transform="translate(363,679)" d="m0 0h178l62 1 6 4 4 10v10l-2 7-5 5-9 3-24 1h-247l-22-2-10-5-4-6-1-3v-11l6-8 5-4 6-1z" fill="#24121F"/>
<path transform="translate(809,7)" d="m0 0 7 1 13 6 10 5 1 2-4-1-15-7-12-5z" fill="#2A1724"/>
<path transform="translate(204,972)" d="m0 0 7 6 11 10 3 5-4-2-17-17z" fill="#24121F"/>
<path transform="translate(990,968)" d="m0 0h2l-2 4-11 11-5 1 5-5z" fill="#422E3B"/>
<path transform="translate(860,35)" d="m0 0 4 2 9 10h-3l-10-10z" fill="#2B1826"/>
<path transform="translate(192,954)" d="m0 0 5 5 4 7-1 2-8-11z" fill="#2A1725"/>
</svg>
