<?xml version="1.0" encoding="UTF-8"?>
<svg version="1.1" xmlns="http://www.w3.org/2000/svg" width="512" height="512">
<path d="M0 0 C0.72761563 -0.00100427 1.45523126 -0.00200853 2.20489585 -0.00304323 C4.63197515 -0.00502169 7.05898027 0.00029029 9.48605347 0.00572205 C11.23099261 0.00604422 12.97593184 0.00600445 14.72087097 0.00563049 C20.44193778 0.00662093 26.1629547 0.01889388 31.88400269 0.03282166 C32.85905683 0.03503495 33.83411098 0.03724824 34.83871222 0.03952861 C44.04277464 0.06065156 53.24681745 0.08575249 62.45083809 0.12081242 C74.20001029 0.16534011 85.94884212 0.18996444 97.69810116 0.18706423 C105.97276565 0.18667135 114.247181 0.20917035 122.52175128 0.24843115 C127.45738421 0.27124466 132.39256886 0.28418015 137.32825089 0.27252388 C141.97597154 0.26204204 146.62274141 0.28009132 151.27029991 0.31932449 C152.96809867 0.32882723 154.66599034 0.32831791 156.36377525 0.31659889 C167.50792396 0.24723882 177.10266993 1.33674932 185.79142952 9.11763096 C187.68670252 11.06132019 189.12852208 12.80920432 190.56369019 15.12266541 C190.89444675 15.62435966 191.22520332 16.12605391 191.56598282 16.64295101 C196.14569842 24.93222798 195.13633407 34.41839673 195.10958862 43.5955658 C195.11833067 45.57717193 195.12881864 47.558771 195.14091492 49.5403595 C195.16871806 54.90128226 195.17218085 60.26197404 195.17119503 65.62295842 C195.174329 71.23240505 195.19995733 76.84174839 195.22317505 82.45114136 C195.2637014 93.06500568 195.28406789 103.67880861 195.29714894 114.29273838 C195.31303035 126.37983381 195.35145084 138.46682495 195.39174223 150.55385983 C195.47409517 175.41009333 195.52821609 200.26632391 195.56369019 225.12266541 C196.24471802 225.13724792 196.92574585 225.15183044 197.62741089 225.16685486 C200.71091234 225.24129237 203.79332585 225.33796623 206.87619019 225.43516541 C207.94804565 225.457724 209.01990112 225.48028259 210.12423706 225.50352478 C211.1522644 225.538974 212.18029175 225.57442322 213.23947144 225.61094666 C214.18733521 225.63713074 215.13519897 225.66331482 216.11178589 225.69029236 C218.94137199 226.18926647 219.86658057 226.84307029 221.56369019 229.12266541 C222.26340091 233.98230015 220.80982348 238.35483942 218.12619019 242.37266541 C211.54251914 250.2230285 202.30313509 252.01943241 192.56369019 253.12266541 C187.32631015 253.40117705 182.09890769 253.42739704 176.85617065 253.42906189 C175.31399136 253.43670134 173.77181583 253.44513183 172.22964478 253.45428467 C168.0769162 253.47604702 163.92426112 253.48500244 159.77148199 253.49011111 C157.1709098 253.49377319 154.57035637 253.50002235 151.96979141 253.5071125 C142.88080257 253.531533 133.7918703 253.54464507 124.70285034 253.54820251 C116.25479162 253.55184316 107.80709494 253.58179526 99.35914695 253.6236071 C92.08066479 253.65835769 84.80230255 253.67375169 77.52373803 253.67444855 C73.18739412 253.67523903 68.85142092 253.68387373 64.51516342 253.71244621 C60.4387905 253.73871286 56.36309378 253.7407848 52.2866745 253.72479057 C50.79762159 253.72298352 49.30852894 253.72959921 47.819561 253.74560928 C38.05953288 253.84409848 29.85976348 253.05423809 22.42677116 246.13281918 C16.18757257 239.60056715 14.10364974 233.32854772 14.20292664 224.49829102 C14.20036336 223.65518181 14.19780009 222.8120726 14.19515914 221.94341463 C14.19023674 219.13195496 14.20668856 216.32103809 14.22311401 213.5096283 C14.22396062 211.48891716 14.22348449 209.4682051 14.2217865 207.44749451 C14.22092644 201.97072986 14.23855419 196.49416269 14.25950837 191.0174439 C14.27827318 185.29060065 14.28002546 179.56375279 14.28358459 173.83688354 C14.29290561 162.99624546 14.31752025 152.15569823 14.34763306 141.31510013 C14.38117523 128.97177552 14.39766264 116.62844655 14.41271937 104.2850877 C14.44406969 78.89756325 14.49683138 53.51011942 14.56369019 28.12266541 C13.30709595 28.14361267 12.05050171 28.16455994 10.75582886 28.18614197 C6.09871798 28.2584804 1.44165685 28.30444275 -3.21585083 28.34239197 C-5.23253731 28.3625215 -7.24916532 28.38982777 -9.26565552 28.42442322 C-12.16253064 28.47288263 -15.05863496 28.49562039 -17.95584106 28.51329041 C-18.85905594 28.53393555 -19.76227081 28.55458069 -20.69285583 28.57585144 C-26.93205613 28.57809378 -26.93205613 28.57809378 -29.52908325 26.23252869 C-31.19856758 22.3499443 -29.79920686 18.95748355 -28.43630981 15.12266541 C-24.8233365 8.64423049 -20.35322925 3.94589783 -13.43630981 1.12266541 C-8.91657694 0.17706108 -4.61124305 -0.00178652 0 0 Z " fill="#FE8ED8" transform="translate(158.43630981445313,48.87733459472656)"/>
<path d="M0 0 C1.0759845 -0.00204437 2.15196899 -0.00408875 3.26055908 -0.00619507 C6.81320287 -0.00919866 10.36538009 0.00928188 13.91796875 0.02832031 C16.40877162 0.03138255 18.89957621 0.03325513 21.39038086 0.03399658 C27.28791389 0.03918801 33.18527759 0.05842043 39.08275509 0.08384633 C45.0511235 0.10855637 51.01945107 0.11483718 56.98786926 0.11887741 C63.38125089 0.12409227 69.77460326 0.13859866 76.16796875 0.15332031 C77.35838776 0.15520103 78.54880676 0.15708176 79.77529907 0.15901947 C91.88671966 0.18370186 103.99582629 0.29057724 116.1015625 0.68164062 C117.06989517 0.70333691 118.03822784 0.72503319 119.03590393 0.74738693 C119.92438522 0.78186558 120.81286652 0.81634422 121.72827148 0.85186768 C122.50468491 0.87675892 123.28109833 0.90165016 124.08103943 0.92729568 C126.60629794 1.46261383 127.53238229 2.34339217 129.10546875 4.35644531 C129.80517947 9.21608006 128.35160204 13.58861933 125.66796875 17.60644531 C119.08152504 25.46011454 109.84673101 27.24101197 100.10546875 28.35644531 C95.30328796 28.60866195 90.51590272 28.61040701 85.70800781 28.58349609 C84.30724089 28.58293045 82.90647337 28.58325152 81.50570679 28.5843811 C77.74202125 28.58494964 73.97846593 28.57327718 70.21481037 28.55923319 C66.26705415 28.54664167 62.3192942 28.54554874 58.371521 28.54318237 C50.91328946 28.53699216 43.45511729 28.52061499 35.99691176 28.50048339 C27.49861734 28.47804739 19.00031992 28.46711169 10.50200319 28.45709252 C-6.9635425 28.43624629 -24.42903057 28.40111868 -41.89453125 28.35644531 C-39.30484261 26.62998622 -36.96800947 25.48535024 -34.14453125 24.23144531 C-26.79223995 20.55529966 -22.58487948 15.79847844 -19.89453125 8.04394531 C-19.66765625 7.2228125 -19.44078125 6.40167969 -19.20703125 5.55566406 C-15.360078 -0.89027248 -6.55090267 -0.06008376 0 0 Z " fill="#FB5FA7" transform="translate(250.89453125,273.6435546875)"/>
<path d="M0 0 C3.96 0 7.92 0 12 0 C15.93147756 9.25053544 19.50649267 18.57565464 23 28 C26.3 18.76 29.6 9.52 33 0 C37.29 0 41.58 0 46 0 C49.3 9.24 52.6 18.48 56 28 C58.83548596 20.91128509 61.50180618 13.85236412 63.97460938 6.64257812 C65.8974824 1.1025176 65.8974824 1.1025176 67 0 C69.01964199 -0.07244053 71.04167124 -0.08377188 73.0625 -0.0625 C74.16722656 -0.05347656 75.27195312 -0.04445313 76.41015625 -0.03515625 C77.26480469 -0.02355469 78.11945313 -0.01195312 79 0 C76.25906317 9.71696738 72.76602923 19.14476015 69.3125 28.625 C68.6996171 30.3137104 68.0869848 32.00251176 67.47460938 33.69140625 C65.98596094 37.7953257 64.4939233 41.89799794 63 46 C58.71 46 54.42 46 50 46 C46.33260564 37.11362137 43.1587433 28.0761224 40 19 C38.11033205 21.83450193 37.17160409 24.0895051 36.08984375 27.2890625 C35.73986328 28.31257813 35.38988281 29.33609375 35.02929688 30.390625 C34.66900391 31.45796875 34.30871094 32.5253125 33.9375 33.625 C33.22004821 35.74307007 32.5001305 37.86030703 31.77734375 39.9765625 C31.46015381 40.91580566 31.14296387 41.85504883 30.81616211 42.82275391 C30 45 30 45 29 46 C26.81360547 46.07258946 24.62499611 46.08373783 22.4375 46.0625 C20.64119141 46.04896484 20.64119141 46.04896484 18.80859375 46.03515625 C17.88175781 46.02355469 16.95492187 46.01195312 16 46 C13.71687046 39.77197959 11.43871658 33.54215601 9.1640625 27.31103516 C8.38917491 25.19017043 7.61313646 23.06972583 6.8359375 20.94970703 C5.72094901 17.90766574 4.61006743 14.86415241 3.5 11.8203125 C3.15001953 10.86818878 2.80003906 9.91606506 2.43945312 8.93508911 C2.11912109 8.05432709 1.79878906 7.17356506 1.46875 6.26611328 C1.18451172 5.48889923 0.90027344 4.71168518 0.60742188 3.91091919 C0 2 0 2 0 0 Z " fill="#484367" transform="translate(71,374)"/>
<path d="M0 0 C0.86795197 -0.00902847 1.73590393 -0.01805695 2.63015747 -0.02735901 C4.46417804 -0.04184836 6.29825014 -0.05074498 8.13232422 -0.05444336 C10.92895166 -0.06633667 13.72336945 -0.11553005 16.51953125 -0.16601562 C18.30467677 -0.17548092 20.0898358 -0.18271545 21.875 -0.1875 C22.70643524 -0.20703232 23.53787048 -0.22656464 24.39450073 -0.24668884 C28.58560475 -0.21434156 31.26535631 0.09495748 34.59472656 2.76611328 C38.1232614 6.47907844 37.90195595 8.40457554 38.0703125 13.37109375 C34.1103125 13.37109375 30.1503125 13.37109375 26.0703125 13.37109375 C26.0703125 12.71109375 26.0703125 12.05109375 26.0703125 11.37109375 C16.1703125 11.70109375 6.2703125 12.03109375 -3.9296875 12.37109375 C-3.9296875 14.02109375 -3.9296875 15.67109375 -3.9296875 17.37109375 C-2.33314331 17.37725708 -2.33314331 17.37725708 -0.7043457 17.38354492 C3.25642884 17.40536823 7.21621445 17.45968981 11.17651367 17.52368164 C12.88833109 17.546834 14.6002904 17.5612509 16.31225586 17.56665039 C18.77807748 17.57596078 21.24167624 17.61699154 23.70703125 17.6640625 C24.46868088 17.66012985 25.23033051 17.6561972 26.01506042 17.65214539 C30.00960916 17.76106909 31.86827227 18.21024474 35.03051758 20.7277832 C39.1090656 26.01305423 38.55313548 31.9588657 38.0703125 38.37109375 C36.54537907 42.58281465 35.79051939 43.89095583 32.0703125 46.37109375 C30.11074829 46.65197754 30.11074829 46.65197754 27.86181641 46.69335938 C27.01728912 46.71257446 26.17276184 46.73178955 25.30264282 46.75158691 C24.39323944 46.76008667 23.48383606 46.76858643 22.546875 46.77734375 C21.60854828 46.7887439 20.67022156 46.80014404 19.70346069 46.81188965 C17.71804307 46.8307813 15.73256285 46.84385434 13.74707031 46.8515625 C10.71307794 46.87098005 7.68179386 46.93302201 4.6484375 46.99609375 C2.71876608 47.00915413 0.7890753 47.01965496 -1.140625 47.02734375 C-2.49865738 47.06438416 -2.49865738 47.06438416 -3.88412476 47.10217285 C-9.98598782 47.05912722 -9.98598782 47.05912722 -12.63580322 45.12719727 C-15.24182888 42.20389536 -15.92564287 40.42124722 -16.2421875 36.49609375 C-16.1390625 35.46484375 -16.0359375 34.43359375 -15.9296875 33.37109375 C-12.2996875 33.37109375 -8.6696875 33.37109375 -4.9296875 33.37109375 C-4.9296875 34.03109375 -4.9296875 34.69109375 -4.9296875 35.37109375 C5.3003125 35.37109375 15.5303125 35.37109375 26.0703125 35.37109375 C26.0703125 33.39109375 26.0703125 31.41109375 26.0703125 29.37109375 C25.04147949 29.39204102 24.01264648 29.41298828 22.95263672 29.43457031 C19.11733037 29.50724369 15.28208428 29.55299196 11.44628906 29.59082031 C9.78960925 29.61087384 8.13299968 29.63812404 6.4765625 29.67285156 C4.08836492 29.72164887 1.70110703 29.74412439 -0.6875 29.76171875 C-1.78942184 29.79268646 -1.78942184 29.79268646 -2.91360474 29.82427979 C-8.06126091 29.82650068 -11.01439435 28.69575326 -14.9296875 25.37109375 C-16.12635953 21.78107766 -16.13507631 18.78060985 -16.1796875 14.99609375 C-16.20546875 13.68898438 -16.23125 12.381875 -16.2578125 11.03515625 C-15.91222717 7.17612004 -15.34386482 5.36162872 -12.9296875 2.37109375 C-9.05017599 -0.40932466 -4.57709702 0.02937891 0 0 Z " fill="#484367" transform="translate(347.9296875,373.62890625)"/>
<path d="M0 0 C0.86795197 -0.00902847 1.73590393 -0.01805695 2.63015747 -0.02735901 C4.46417804 -0.04184836 6.29825014 -0.05074498 8.13232422 -0.05444336 C10.92895166 -0.06633667 13.72336945 -0.11553005 16.51953125 -0.16601562 C18.30467677 -0.17548092 20.0898358 -0.18271545 21.875 -0.1875 C22.70643524 -0.20703232 23.53787048 -0.22656464 24.39450073 -0.24668884 C28.58560475 -0.21434156 31.26535631 0.09495748 34.59472656 2.76611328 C38.1232614 6.47907844 37.90195595 8.40457554 38.0703125 13.37109375 C34.1103125 13.37109375 30.1503125 13.37109375 26.0703125 13.37109375 C26.0703125 12.71109375 26.0703125 12.05109375 26.0703125 11.37109375 C16.1703125 11.70109375 6.2703125 12.03109375 -3.9296875 12.37109375 C-3.9296875 14.02109375 -3.9296875 15.67109375 -3.9296875 17.37109375 C-2.33314331 17.37725708 -2.33314331 17.37725708 -0.7043457 17.38354492 C3.25642884 17.40536823 7.21621445 17.45968981 11.17651367 17.52368164 C12.88833109 17.546834 14.6002904 17.5612509 16.31225586 17.56665039 C18.77807748 17.57596078 21.24167624 17.61699154 23.70703125 17.6640625 C24.46868088 17.66012985 25.23033051 17.6561972 26.01506042 17.65214539 C30.00960916 17.76106909 31.86827227 18.21024474 35.03051758 20.7277832 C39.1090656 26.01305423 38.55313548 31.9588657 38.0703125 38.37109375 C36.54537907 42.58281465 35.79051939 43.89095583 32.0703125 46.37109375 C30.11074829 46.65197754 30.11074829 46.65197754 27.86181641 46.69335938 C27.01728912 46.71257446 26.17276184 46.73178955 25.30264282 46.75158691 C24.39323944 46.76008667 23.48383606 46.76858643 22.546875 46.77734375 C21.60854828 46.7887439 20.67022156 46.80014404 19.70346069 46.81188965 C17.71804307 46.8307813 15.73256285 46.84385434 13.74707031 46.8515625 C10.71307794 46.87098005 7.68179386 46.93302201 4.6484375 46.99609375 C2.71876608 47.00915413 0.7890753 47.01965496 -1.140625 47.02734375 C-2.49865738 47.06438416 -2.49865738 47.06438416 -3.88412476 47.10217285 C-9.98598782 47.05912722 -9.98598782 47.05912722 -12.63580322 45.12719727 C-15.24182888 42.20389536 -15.92564287 40.42124722 -16.2421875 36.49609375 C-16.1390625 35.46484375 -16.0359375 34.43359375 -15.9296875 33.37109375 C-12.2996875 33.37109375 -8.6696875 33.37109375 -4.9296875 33.37109375 C-4.9296875 34.03109375 -4.9296875 34.69109375 -4.9296875 35.37109375 C5.3003125 35.37109375 15.5303125 35.37109375 26.0703125 35.37109375 C26.0703125 33.39109375 26.0703125 31.41109375 26.0703125 29.37109375 C25.04147949 29.39204102 24.01264648 29.41298828 22.95263672 29.43457031 C19.11733037 29.50724369 15.28208428 29.55299196 11.44628906 29.59082031 C9.78960925 29.61087384 8.13299968 29.63812404 6.4765625 29.67285156 C4.08836492 29.72164887 1.70110703 29.74412439 -0.6875 29.76171875 C-1.78942184 29.79268646 -1.78942184 29.79268646 -2.91360474 29.82427979 C-8.06126091 29.82650068 -11.01439435 28.69575326 -14.9296875 25.37109375 C-16.12635953 21.78107766 -16.13507631 18.78060985 -16.1796875 14.99609375 C-16.20546875 13.68898438 -16.23125 12.381875 -16.2578125 11.03515625 C-15.91222717 7.17612004 -15.34386482 5.36162872 -12.9296875 2.37109375 C-9.05017599 -0.40932466 -4.57709702 0.02937891 0 0 Z " fill="#484367" transform="translate(190.9296875,373.62890625)"/>
<path d="M0 0 C3.96 0 7.92 0 12 0 C12 6.93 12 13.86 12 21 C15.68542969 20.93039062 15.68542969 20.93039062 19.4453125 20.859375 C21.83819516 20.82813511 24.23105466 20.80387274 26.62402344 20.78027344 C28.28070325 20.76021991 29.93731282 20.73296971 31.59375 20.69824219 C33.98194758 20.64944488 36.36920547 20.62696936 38.7578125 20.609375 C39.85973434 20.57840729 39.85973434 20.57840729 40.98391724 20.54681396 C46.13929606 20.54458974 49.04075748 21.73516172 53 25 C54.69196504 28.38393008 54.11986549 32.22477791 54.09765625 35.9453125 C54.0962413 36.8303244 54.09482635 37.7153363 54.09336853 38.62716675 C54.0877614 41.45981191 54.07520771 44.29237864 54.0625 47.125 C54.05748592 49.04296761 54.05292285 50.96093646 54.04882812 52.87890625 C54.03778966 57.58596782 54.02052025 62.2929706 54 67 C50.37 67 46.74 67 43 67 C42.67 55.78 42.34 44.56 42 33 C27.15 32.505 27.15 32.505 12 32 C12 43.55 12 55.1 12 67 C8.04 67 4.08 67 0 67 C0 44.89 0 22.78 0 0 Z " fill="#494368" transform="translate(235,353)"/>
<path d="M0 0 C1.52685173 -0.01062721 1.52685173 -0.01062721 3.08454895 -0.02146912 C4.20048935 -0.0189917 5.31642975 -0.01651428 6.46618652 -0.01396179 C8.22988838 -0.02162819 8.22988838 -0.02162819 10.02922058 -0.02944946 C13.2543961 -0.04097822 16.47941246 -0.04341747 19.7046032 -0.04088616 C22.39609106 -0.03981711 25.08755517 -0.04469804 27.77903795 -0.04949158 C34.12740892 -0.06058883 40.47572071 -0.06102271 46.82409668 -0.05497742 C53.37649277 -0.04893389 59.92867432 -0.06125758 66.4810338 -0.08254749 C72.10488776 -0.10014957 77.72867334 -0.10616714 83.35255384 -0.10290974 C86.71229351 -0.10109478 90.07188008 -0.10375415 93.43159485 -0.11762428 C97.17636838 -0.12990884 100.92064026 -0.12324491 104.66540527 -0.11161804 C106.33931587 -0.12308365 106.33931587 -0.12308365 108.04704285 -0.13478088 C109.57389458 -0.12425941 109.57389458 -0.12425941 111.1315918 -0.11352539 C112.01722557 -0.11369313 112.90285934 -0.11386087 113.81533051 -0.1140337 C116.53867261 0.33943619 117.463718 1.03826797 119.0657959 3.26069641 C118.82126466 6.60262333 118.46036032 7.86613199 116.0657959 10.26069641 C113.91996765 10.51237869 113.91996765 10.51237869 111.20715332 10.5146637 C109.66757462 10.52312317 109.66757462 10.52312317 108.09689331 10.53175354 C106.40120712 10.52568085 106.40120712 10.52568085 104.67126465 10.51948547 C102.89074203 10.52474243 102.89074203 10.52474243 101.07424927 10.53010559 C97.81395215 10.5374142 94.55381666 10.5356808 91.29352188 10.52934742 C87.88582258 10.52429321 84.47813428 10.52897725 81.07043457 10.53211975 C75.34718886 10.53576109 69.62399472 10.53095591 63.90075684 10.5214386 C57.27853481 10.51055369 50.65643592 10.51407916 44.03421688 10.52509141 C38.35435143 10.53415952 32.6745231 10.53545191 26.99465275 10.53021407 C23.59975732 10.52709173 20.20491981 10.52669221 16.81002808 10.53328705 C13.02670864 10.53834255 9.24362866 10.5306556 5.46032715 10.51948547 C4.32986969 10.52353394 3.19941223 10.5275824 2.03469849 10.53175354 C1.00831268 10.52611389 -0.01807312 10.52047424 -1.07556152 10.5146637 C-1.97079025 10.51390965 -2.86601898 10.51315559 -3.78837585 10.51237869 C-5.9342041 10.26069641 -5.9342041 10.26069641 -7.9342041 8.26069641 C-8.2467041 5.26069641 -8.2467041 5.26069641 -7.9342041 2.26069641 C-4.67639793 0.08882563 -3.76690298 0.00873156 0 0 Z " fill="#FC60A8" transform="translate(207.9342041015625,137.7393035888672)"/>
<path d="M0 0 C1.02356598 -0.00571014 2.04713196 -0.01142029 3.10171509 -0.01730347 C4.23419678 -0.01842133 5.36667847 -0.01953918 6.53347778 -0.02069092 C7.71874054 -0.02565582 8.9040033 -0.03062073 10.12518311 -0.03573608 C13.38555772 -0.04786964 16.64589643 -0.05530943 19.90628958 -0.05974674 C21.94173175 -0.06267405 23.97716825 -0.06677821 26.01260757 -0.07125092 C32.37659298 -0.0849321 38.74056545 -0.09459555 45.10456455 -0.09845281 C52.45903132 -0.10293442 59.81331231 -0.12048434 67.16772258 -0.1494534 C72.84672742 -0.17104894 78.52567991 -0.18115595 84.20472538 -0.18249393 C87.59916064 -0.18354355 90.99342142 -0.18948431 94.38781357 -0.20731354 C98.1734922 -0.22429139 101.95871446 -0.22251384 105.74441528 -0.21600342 C106.87284851 -0.2252182 108.00128174 -0.23443298 109.16390991 -0.243927 C110.70771835 -0.23557327 110.70771835 -0.23557327 112.28271484 -0.22705078 C113.62612348 -0.22925062 113.62612348 -0.22925062 114.99667168 -0.2314949 C117.73653146 0.21709796 118.65725021 0.9062473 120.26834106 3.14044189 C120.14334106 5.70294189 120.14334106 5.70294189 119.26834106 8.14044189 C116.02955261 10.2996342 115.1531917 10.39231763 111.41679382 10.40113831 C110.41716614 10.40822311 109.41753845 10.41530792 108.38761902 10.42260742 C106.7441172 10.4188913 106.7441172 10.4188913 105.06741333 10.4151001 C103.33538162 10.42276649 103.33538162 10.42276649 101.56835938 10.43058777 C97.74043639 10.4445207 93.91269269 10.44352421 90.08474731 10.44122314 C88.10110961 10.44412657 86.11747183 10.4470343 84.13383526 10.45062989 C77.89569317 10.46172759 71.6576113 10.46216107 65.41946411 10.45611572 C58.98410201 10.45007514 52.5489585 10.46238829 46.11363369 10.48368579 C40.58827685 10.50129938 35.06298959 10.50730354 29.5376057 10.50404805 C26.23762749 10.50223458 22.93784012 10.50618817 19.63788033 10.51876259 C15.95796875 10.53106335 12.27856641 10.52437311 8.59866333 10.51275635 C7.50501968 10.52040009 6.41137604 10.52804382 5.28459167 10.53591919 C4.28214417 10.52890488 3.27969666 10.52189056 2.24687195 10.5146637 C1.37690866 10.51483144 0.50694536 10.51499918 -0.38938046 10.515172 C-3.20768272 10.06428509 -4.60683419 8.99824755 -6.73165894 7.14044189 C-5.67099654 0.01885151 -5.67099654 0.01885151 0 0 Z " fill="#FC60A8" transform="translate(206.73165893554688,164.85955810546875)"/>
<path d="M0 0 C1.01652649 -0.00571014 2.03305298 -0.01142029 3.0803833 -0.01730347 C4.19991898 -0.01842133 5.31945465 -0.01953918 6.47291565 -0.02069092 C7.64857086 -0.02565582 8.82422607 -0.03062073 10.0355072 -0.03573608 C13.26483192 -0.04785599 16.49412041 -0.05530559 19.72346377 -0.05974674 C21.73998276 -0.06267633 23.75649604 -0.06678088 25.77301216 -0.07125092 C32.07932905 -0.0849258 38.38563292 -0.09459296 44.69196361 -0.09845281 C51.97737044 -0.10293618 59.26258988 -0.12049686 66.54793972 -0.1494534 C72.17600975 -0.17104836 77.80402698 -0.18115588 83.43213803 -0.18249393 C86.79525994 -0.18354337 90.15820572 -0.18948068 93.5212841 -0.20731354 C97.27093241 -0.22429097 101.02011995 -0.2225141 104.76979065 -0.21600342 C105.88730209 -0.2252182 107.00481354 -0.23443298 108.15618896 -0.243927 C109.17553528 -0.23835785 110.19488159 -0.2327887 111.24511719 -0.22705078 C112.57551608 -0.22925062 112.57551608 -0.22925062 113.93279171 -0.2314949 C116.66012168 0.21869502 117.57957634 0.91790827 119.18605042 3.14044189 C119.06105042 5.70294189 119.06105042 5.70294189 118.18605042 8.14044189 C114.94726196 10.2996342 114.07090105 10.39231763 110.33450317 10.40113831 C109.33487549 10.40822311 108.3352478 10.41530792 107.30532837 10.42260742 C105.66182655 10.4188913 105.66182655 10.4188913 103.98512268 10.4151001 C102.25309097 10.42276649 102.25309097 10.42276649 100.48606873 10.43058777 C96.65814574 10.4445207 92.83040204 10.44352421 89.00245667 10.44122314 C87.01881896 10.44412657 85.03518118 10.4470343 83.05154461 10.45062989 C76.81340252 10.46172759 70.57532065 10.46216107 64.33717346 10.45611572 C57.90181136 10.45007514 51.46666785 10.46238829 45.03134304 10.48368579 C39.5059862 10.50129938 33.98069894 10.50730354 28.45531505 10.50404805 C25.15533684 10.50223458 21.85554947 10.50618817 18.55558968 10.51876259 C14.8756781 10.53106335 11.19627577 10.52437311 7.51637268 10.51275635 C6.42272903 10.52040009 5.32908539 10.52804382 4.20230103 10.53591919 C3.19985352 10.52890488 2.19740601 10.52189056 1.1645813 10.5146637 C0.29461801 10.51483144 -0.57534529 10.51499918 -1.4716711 10.515172 C-4.28997337 10.06428509 -5.68912484 8.99824755 -7.81394958 7.14044189 C-7.43894958 4.20294189 -7.43894958 4.20294189 -6.81394958 1.14044189 C-4.35680835 -0.08812872 -2.74822016 0.00922111 0 0 Z " fill="#FC60A8" transform="translate(207.81394958496094,191.85955810546875)"/>
<path d="M0 0 C3.63 0 7.26 0 11 0 C11 6.27 11 12.54 11 19 C16.61 19 22.22 19 28 19 C28 22.63 28 26.26 28 30 C22.72 30.33 17.44 30.66 12 31 C11.67 38.59 11.34 46.18 11 54 C17.93 54 24.86 54 32 54 C32 57.63 32 61.26 32 65 C27.60466852 65.17443566 23.21022734 65.28090701 18.8125 65.375 C17.56662109 65.42527344 16.32074219 65.47554688 15.03710938 65.52734375 C6.04745072 65.67194952 6.04745072 65.67194952 1.6875 62.875 C-1.52595659 57.60471297 -0.7856749 50.56825096 -0.8125 44.625 C-0.83763672 43.31660156 -0.86277344 42.00820313 -0.88867188 40.66015625 C-0.94743747 37.43980177 -0.9837975 34.22080358 -1 31 C-3.31 30.67 -5.62 30.34 -8 30 C-8 26.37 -8 22.74 -8 19 C-5.36 19 -2.72 19 0 19 C0 12.73 0 6.46 0 0 Z " fill="#494368" transform="translate(400,355)"/>
<path d="M0 0 C4.13453338 4.01509131 6.36989284 9.15535262 7.7578125 14.70703125 C7.78747112 17.04017608 7.79082806 19.37393151 7.7578125 21.70703125 C1.83134851 21.80582465 -4.09463745 21.87846407 -10.02172852 21.92675781 C-12.03841499 21.94688734 -14.05504301 21.97419362 -16.0715332 22.00878906 C-18.96840832 22.05724847 -21.86451265 22.07998624 -24.76171875 22.09765625 C-25.66493362 22.11830139 -26.5681485 22.13894653 -27.49873352 22.16021729 C-33.73793381 22.16245963 -33.73793381 22.16245963 -36.33496094 19.81689453 C-38.00444527 15.93431014 -36.60508454 12.5418494 -35.2421875 8.70703125 C-31.62921418 2.22859634 -27.15910694 -2.46973633 -20.2421875 -5.29296875 C-12.35876917 -7.52089132 -6.10779148 -4.92216137 0 0 Z " fill="#FA5FA7" transform="translate(165.2421875,55.29296875)"/>
<path d="M0 0 C0.73689056 -0.00846954 1.47378113 -0.01693909 2.23300171 -0.02566528 C4.66983271 -0.0490729 7.10603382 -0.0500567 9.54296875 -0.04882812 C11.23543553 -0.05592676 12.92789989 -0.06362532 14.62036133 -0.07189941 C18.16787406 -0.08535233 21.7151642 -0.08690909 25.26269531 -0.08105469 C29.81288817 -0.07515354 34.36201588 -0.10576255 38.91200256 -0.14617157 C42.40700045 -0.1719958 45.90173992 -0.17493092 49.39682007 -0.17127991 C51.07460206 -0.1729757 52.7523954 -0.1826623 54.43008423 -0.20042419 C56.77443189 -0.22251479 59.11659854 -0.21296609 61.4609375 -0.1953125 C62.15609467 -0.20857574 62.85125183 -0.22183899 63.56747437 -0.23550415 C65.50463867 -0.20153809 65.50463867 -0.20153809 68.73046875 0.41992188 C70.72387695 2.81774902 70.72387695 2.81774902 71.73046875 5.41992188 C71.10546875 7.66992188 71.10546875 7.66992188 69.73046875 9.41992188 C66.24868923 10.58051505 63.51846936 10.55407244 59.84399414 10.56518555 C59.14772415 10.56854416 58.45145416 10.57190277 57.73408508 10.57536316 C55.43208025 10.58486328 53.13014822 10.58681574 50.828125 10.58789062 C49.22773712 10.59110366 47.62734954 10.59446777 46.02696228 10.59797668 C42.67202066 10.60396546 39.31710479 10.60581682 35.9621582 10.60522461 C31.66352428 10.60512296 27.3650554 10.61877956 23.06646061 10.63599682 C19.76105491 10.64711544 16.45568914 10.64914387 13.15026665 10.64861488 C11.56543852 10.64979504 9.98060936 10.65421881 8.39579964 10.66194725 C6.17919472 10.67174521 3.96294859 10.66887011 1.74633789 10.6628418 C-0.14537392 10.66497932 -0.14537392 10.66497932 -2.07530212 10.66716003 C-5.10055025 10.43300126 -6.80579032 10.14923944 -9.26953125 8.41992188 C-10.20703125 5.98242188 -10.20703125 5.98242188 -10.26953125 3.41992188 C-7.79375411 -0.46316659 -4.16797006 -0.01757109 0 0 Z " fill="#FC60A8" transform="translate(210.26953125,218.580078125)"/>
<path d="M0 0 C3.63 0 7.26 0 11 0 C11 22.11 11 44.22 11 67 C7.37 67 3.74 67 0 67 C0 44.89 0 22.78 0 0 Z " fill="#494368" transform="translate(296,353)"/>
<path d="M0 0 C3.63 0 7.26 0 11 0 C11 15.18 11 30.36 11 46 C7.37 46 3.74 46 0 46 C0 30.82 0 15.64 0 0 Z " fill="#494368" transform="translate(314,374)"/>
<path d="M0 0 C3.63 0 7.26 0 11 0 C11 15.18 11 30.36 11 46 C7.37 46 3.74 46 0 46 C0 30.82 0 15.64 0 0 Z " fill="#494368" transform="translate(157,374)"/>
<path d="M0 0 C3.63 0 7.26 0 11 0 C11 3.96 11 7.92 11 12 C7.37 12 3.74 12 0 12 C0 8.04 0 4.08 0 0 Z " fill="#494368" transform="translate(314,353)"/>
<path d="M0 0 C3.63 0 7.26 0 11 0 C11 3.96 11 7.92 11 12 C7.37 12 3.74 12 0 12 C0 8.04 0 4.08 0 0 Z " fill="#494368" transform="translate(157,353)"/>
</svg>
