<?xml version="1.0" encoding="UTF-8"?>
<svg version="1.1" viewBox="0 0 1008 1012" width="252" height="253" xmlns="http://www.w3.org/2000/svg">
<path transform="translate(93)" d="m0 0h3v4h708l17 6 16 8 10 6 10 7 13 12 6 8 8 13 8 15 6 16 1 1 1 7 1 796 2 3 3 1 88 1 6 5v2l4 2v2l4 2v22l-3 5-3 9-6 10-3 4-3 5-11 11-6 3-9 6-14 7-10 3-5 2-10 2-2 1-15 1h-16v4h-632l-2-3-11-3-17-9-7-4-21-21-7-11-3-4-8-17-4-11v-817h-166l-6-5-4-6-2-5-2-1v-10l2-2 7-22 8-16 9-10h2l2-4 4-7 5-2 7-7 7-4 6-3 9-1 1-3 22-1z" fill="#555AFC"/>
<path transform="translate(472,899)" d="m0 0h385l30 1 12 1 4 2 91 1 6 5v2l4 2v2l4 2v22l-3 5-3 9-6 10-3 4-3 5-11 11-6 3-9 6-14 7-10 3-5 2-10 2-2 1-15 1h-16v4h-566l3-3 10-4 8-4 17-8 15-10 17-17 7-10 8-16 4-10 2-8 4-9 7-6 15-5 12-2z" fill="#FC60A3"/>
<path transform="translate(330,355)" d="m0 0h437l11 1 8 4 8 8 2 4v9l-4 6-7 6-5 2-6 1-82 1h-363l-31-1-6-3-4-8v-19l2-4 6-4 11-2z" fill="#FD61A3"/>
<path transform="translate(327,463)" d="m0 0h435l16 1 9 3 7 8 2 5v8l-5 8-6 4-8 3-7 1-130 1h-296l-30-1-13-2-8-5-4-5-1-4v-9l4-10 4-4 3-1z" fill="#FD61A3"/>
<path transform="translate(331,571)" d="m0 0h435l13 1 7 4 8 8 2 4v9l-5 7-9 5-5 2-8 1-225 1h-197l-33-1-13-2-8-5-4-5-1-4v-10l4-8 4-4 8-2z" fill="#FD61A3"/>
<path transform="translate(93)" d="m0 0h3v4h18l5 2 12 7 14 10 10 10 7 11 8 15 5 15 4 18 1 8v11l-1 1h-165l-6-5-4-6-2-5-2-1v-10l2-2 7-22 8-16 9-10h2l2-4 4-7 5-2 7-7 7-4 6-3 9-1 1-3 22-1z" fill="#FC60A3"/>
<path transform="translate(330,679)" d="m0 0h249l20 1 5 2 7 8 3 11-2 8-4 5-11 4-5 1-14 1-47 1h-173l-44-1-16-4-6-5-3-5v-12l6-9 5-4 3-1z" fill="#FD61A3"/>
</svg>
